<svg xmlns="http://www.w3.org/2000/svg" width="28" height="24" viewBox="0 0 28 24"><path fill="#D03" d="M12 22.5C6.21 22.5 1.5 17.79 1.5 12S6.21 1.5 12 1.5 22.5 6.21 22.5 12 17.79 22.5 12 22.5z"/><path fill="#404040" d="M12 3c4.963 0 9 4.038 9 9s-4.037 9-9 9c-4.962 0-9-4.038-9-9s4.038-9 9-9m0-3C5.373 0 0 5.373 0 12s5.373 12 12 12 12-5.373 12-12S18.627 0 12 0z"/><g><path fill="#FC0" d="M21.167 13.346H17.83l6.003-11.334v8.642h3.336l-6.003 11.334"/><path fill="#404040" d="M23.333 4.025v7.13h3.006l-4.673 8.82v-7.13H18.66l4.673-8.82m1-4.025L17 13.846h3.667V24L28 10.154h-3.667V0z"/></g></svg>