<svg version="1.1" xmlns="http://www.w3.org/2000/svg" xmlns:xlink="http://www.w3.org/1999/xlink" x="0px" y="0px"
	 width="10px" height="10px" viewBox="0 0 10 10" enable-background="new 0 0 10 10" xml:space="preserve">
		<path fill="#222222" d="M4.775,8.32c-1.958,0-3.55-1.63-3.55-3.632c0-2.003,1.592-3.633,3.55-3.633s3.549,1.63,3.549,3.633
			C8.324,6.69,6.732,8.32,4.775,8.32z"/>
		<path fill="#444444" d="M4.775,1.555c1.681,0,3.049,1.405,3.049,3.133c0,1.727-1.368,3.132-3.049,3.132
			c-1.682,0-3.05-1.405-3.05-3.132C1.725,2.96,3.093,1.555,4.775,1.555 M4.775,0.555c-2.237,0-4.05,1.851-4.05,4.133
			c0,2.283,1.813,4.132,4.05,4.132s4.049-1.85,4.049-4.132C8.824,2.406,7.012,0.555,4.775,0.555L4.775,0.555z"/>
		<circle fill="#FFCC00" cx="7.775" cy="1.688" r="1.5"/>
	<polygon fill="#444444" points="6.477,8.141 4.775,9.812 3.074,8.141 	"/>
</svg>
