<svg xmlns="http://www.w3.org/2000/svg" width="10" height="10" viewBox="0 0 10 10"><path fill="#F90" d="M5 9.5C2.52 9.5.5 7.48.5 5S2.52.5 5 .5 9.5 2.52 9.5 5 7.48 9.5 5 9.5z"/><path fill="#444" d="M5 1c2.206 0 4 1.794 4 4S7.206 9 5 9 1 7.206 1 5s1.794-4 4-4m0-1C2.238 0 0 2.238 0 5s2.238 5 5 5 5-2.238 5-5-2.238-5-5-5z"/><g><circle fill="#FC0" cx="8" cy="2" r="1.5"/><path fill="#444" d="M8 1c.552 0 1 .45 1 1s-.448 1-1 1-1-.45-1-1 .448-1 1-1m0-1C6.896 0 6 .895 6 2c0 1.104.896 2 2 2 1.105 0 2-.896 2-2 0-1.105-.895-2-2-2z"/></g></svg>