<svg version="1.1" xmlns="http://www.w3.org/2000/svg" xmlns:xlink="http://www.w3.org/1999/xlink" x="0px" y="0px"
	 width="20px" height="20px" viewBox="0 0 20 20" enable-background="new 0 0 20 20" xml:space="preserve">
		<path fill="#DD0033" d="M9.014,16.455c-4.15,0-7.527-3.364-7.527-7.5s3.377-7.5,7.527-7.5s7.527,3.364,7.527,7.5
			S13.164,16.455,9.014,16.455z"/>
		<path fill="#404040" d="M9.014,1.955c3.875,0,7.027,3.14,7.027,7c0,3.859-3.152,7-7.027,7s-7.027-3.141-7.027-7
			C1.986,5.095,5.139,1.955,9.014,1.955 M9.014,0.955c-4.433,0-8.027,3.583-8.027,8s3.595,8,8.027,8s8.027-3.583,8.027-8
			S13.446,0.955,9.014,0.955L9.014,0.955z"/>
		<polygon fill="#FFCC00" points="14.181,9.686 11.88,9.686 15.847,2.82 15.847,8.225 18.147,8.225 14.181,15.09 		"/>
		<path fill="#404040" d="M15.347,4.685v3.04v1h1h0.935l-2.601,4.501v-3.04v-1h-1h-0.935L15.347,4.685 M16.347,0.955l-5.333,9.23
			h2.667v6.77l5.333-9.23h-2.667V0.955L16.347,0.955z"/>
	<polygon fill="#404040" points="11.52,16.396 9.014,19.045 6.508,16.396 	"/>
</svg>
