<svg xmlns="http://www.w3.org/2000/svg" width="28" height="24" viewBox="0 0 28 24"><path fill="#222" d="M12 23C5.935 23 1 18.065 1 12S5.935 1 12 1s11 4.935 11 11-4.935 11-11 11zm0-16c-2.757 0-5 2.243-5 5s2.243 5 5 5 5-2.243 5-5-2.243-5-5-5z"/><path fill="#404040" d="M12 2c5.514 0 10 4.486 10 10s-4.486 10-10 10S2 17.514 2 12 6.486 2 12 2m0 16c3.31 0 6-2.69 6-6s-2.69-6-6-6-6 2.69-6 6 2.69 6 6 6m0-18C5.373 0 0 5.373 0 12s5.373 12 12 12 12-5.373 12-12S18.627 0 12 0zm0 16c-2.21 0-4-1.79-4-4s1.79-4 4-4 4 1.79 4 4-1.79 4-4 4z"/><g><path fill="#FC0" d="M21.167 13.346H17.83l6.003-11.334v8.642h3.336l-6.003 11.333"/><path fill="#404040" d="M23.333 4.025v7.13h3.006l-4.673 8.82v-7.13H18.66l4.673-8.82m1-4.025L17 13.846h3.667V24L28 10.154h-3.667V0z"/></g></svg>