<svg version="1.1" xmlns="http://www.w3.org/2000/svg" xmlns:xlink="http://www.w3.org/1999/xlink" x="0px" y="0px"
	 width="10px" height="10px" viewBox="0 0 10 10" enable-background="new 0 0 10 10" xml:space="preserve">
		<path fill="#FF9900" d="M4.774,8.32c-1.958,0-3.55-1.63-3.55-3.633s1.592-3.633,3.55-3.633c1.957,0,3.55,1.63,3.55,3.633
			S6.731,8.32,4.774,8.32z"/>
		<path fill="#444444" d="M4.774,1.555c1.682,0,3.05,1.405,3.05,3.133S6.456,7.82,4.774,7.82s-3.05-1.405-3.05-3.133
			S3.093,1.555,4.774,1.555 M4.774,0.555c-2.236,0-4.05,1.851-4.05,4.133c0,2.283,1.813,4.133,4.05,4.133
			c2.237,0,4.05-1.85,4.05-4.133C8.824,2.405,7.012,0.555,4.774,0.555L4.774,0.555z"/>
		<circle fill="#FFCC00" cx="7.775" cy="1.688" r="1.5"/>
	<circle fill="#444444" cx="4.774" cy="4.688" r="1"/>
	<polygon fill="#444444" points="6.477,8.141 4.774,9.812 3.074,8.141 	"/>
</svg>
