<svg version="1.1" xmlns="http://www.w3.org/2000/svg" xmlns:xlink="http://www.w3.org/1999/xlink" x="0px" y="0px"
	 width="20px" height="20px" viewBox="0 0 20 20" enable-background="new 0 0 20 20" xml:space="preserve">
		<path fill="#AACC22" d="M9.014,16.455c-4.15,0-7.527-3.364-7.527-7.5s3.377-7.5,7.527-7.5s7.527,3.364,7.527,7.5
			S13.164,16.455,9.014,16.455z M9.056,5.435c-1.964,0-3.562,1.598-3.562,3.562s1.598,3.562,3.562,3.562
			c1.965,0,3.562-1.598,3.562-3.562S11.021,5.435,9.056,5.435z"/>
		<path fill="#404040" d="M9.014,1.955c3.875,0,7.027,3.14,7.027,7c0,3.859-3.152,7-7.027,7s-7.027-3.141-7.027-7
			C1.986,5.095,5.139,1.955,9.014,1.955 M9.056,13.06c2.24,0,4.062-1.822,4.062-4.062s-1.822-4.062-4.062-4.062
			S4.993,6.757,4.993,8.997S6.815,13.06,9.056,13.06 M9.014,0.955c-4.433,0-8.027,3.583-8.027,8s3.595,8,8.027,8
			s8.027-3.583,8.027-8S13.446,0.955,9.014,0.955L9.014,0.955z M9.056,12.06c-1.691,0-3.062-1.371-3.062-3.062
			s1.371-3.062,3.062-3.062s3.062,1.371,3.062,3.062S10.747,12.06,9.056,12.06L9.056,12.06z"/>
		<polygon fill="#FFCC00" points="14.181,9.686 11.88,9.686 15.847,2.82 15.847,8.225 18.147,8.225 14.181,15.09 		"/>
		<path fill="#404040" d="M15.347,4.685v3.04v1h1h0.935l-2.601,4.501v-3.04v-1h-1h-0.935L15.347,4.685 M16.347,0.955l-5.333,9.23
			h2.667v6.77l5.333-9.23h-2.667V0.955L16.347,0.955z"/>
	<polygon fill="#404040" points="11.52,16.396 9.014,19.045 6.508,16.396 	"/>
</svg>
